# xmcd
#
# Track frame offsets:
#	150
#	3246
#	24623
#	54663
#	76315
#	100857
#	128188
#	154465
#	172855
#	195504
#	220587
#
# Disc length: 3173 seconds
#
# Revision: 1
# Processed by: cddbd v1.5.2PL0 Copyright (c) Steve Scherf et al.
# Submitted via: EZCDAudioConverter 8.0.2.1
#
DISCID=840c630b
DTITLE=Various Artist - 10 Năm Làn Sóng Xanh [CD1)
DYEAR=2007
DGENRE=Country
TTITLE0=V.A - Nhạc hiệu làn sóng xanh
TTITLE1=Lam Trường - Nỗi nhớ diu êm
TTITLE2=Thanh Lam - Cho em 1 ngày
TTITLE3=Quang Dũng - Còn ta với nồng nàn
TTITLE4=Mỹ Tâm - Tinh mẹ
TTITLE5=Đàm Vĩnh Hưng - Giọt nước mắt cho đời
TTITLE6=Lệ Quyên - Hãy trả lời em
TTITLE7=Tuấn Hưng - Rồi mai thức giấc
TTITLE8=Cẩm Ly - Vọng cổ buồn
TTITLE9=Phương Thanh - Tiếng rao
TTITLE10=Cẩm Vân - Sóng về đâu
EXTD=
EXTT0=
EXTT1=
EXTT2=
EXTT3=
EXTT4=
EXTT5=
EXTT6=
EXTT7=
EXTT8=
EXTT9=
EXTT10=
PLAYORDER=
